<?xml version="1.0" standalone="no"?>
<!DOCTYPE svg PUBLIC "-//W3C//DTD SVG 20010904//EN"
 "http://www.w3.org/TR/2001/REC-SVG-20010904/DTD/svg10.dtd">
<svg version="1.0" xmlns="http://www.w3.org/2000/svg"
 width="613.000000pt" height="613.000000pt" viewBox="0 0 613.000000 613.000000"
 preserveAspectRatio="xMidYMid meet">
<metadata>
Created by potrace 1.14, written by Peter Selinger 2001-2017
</metadata>
<g transform="translate(0.000000,613.000000) scale(0.100000,-0.100000)"
fill="#000000" stroke="none">
<path d="M1470 3073 l0 -2693 364 0 364 0 1 1268 c0 697 0 1275 1 1285 0 16
58 17 1065 17 1007 0 1065 1 1066 18 1 22 1 551 0 577 -1 20 -7 20 -1066 20
-704 0 -1065 3 -1065 10 -1 13 -1 1488 0 1538 l0 37 1183 0 1182 0 0 299 c0
165 -4 303 -8 308 -5 4 -701 8 -1548 8 l-1539 0 0 -2692z"/>
</g>
</svg>
